<svg version="1.2" xmlns="http://www.w3.org/2000/svg" viewBox="0 0 24 24" width="240" height="240"><style>.a{fill:#04a29f;stroke:#000;stroke-linecap:round;stroke-linejoin:round;stroke-width:2}</style><path fill-rule="evenodd" class="a" d="m10 13q0.7 0.9 1.6 1.4 1 0.5 2 0.6 1.1 0.1 2.2-0.3 1-0.4 1.7-1.2l3-3c1-0.9 1.5-2.2 1.4-3.5 0-1.3-0.5-2.5-1.4-3.5-0.9-0.9-2.2-1.4-3.5-1.4-1.3 0-2.6 0.5-3.5 1.4l-1.8 1.7"/><path fill-rule="evenodd" class="a" d="m14 11q-0.7-0.9-1.6-1.4-1-0.5-2-0.6-1.1-0.1-2.2 0.3-1 0.4-1.7 1.2l-3 3c-1 0.9-1.5 2.2-1.4 3.5 0 1.3 0.5 2.5 1.4 3.5 0.9 0.9 2.2 1.4 3.5 1.4 1.3 0 2.6-0.5 3.5-1.4l1.7-1.7"/></svg>